<?xml version="1.0" encoding="UTF-8" standalone="no"?>
<!-- Created with Inkscape (http://www.inkscape.org/) -->

<svg
   width="128"
   height="128"
   viewBox="0 0 33.866667 33.866667"
   version="1.1"
   id="svg5"
   inkscape:version="1.1 (c68e22c387, 2021-05-23)"
   sodipodi:docname="imy-icon.svg"
   inkscape:export-filename="/home/bogdan/public_html/sf/icons/imy-icon.png"
   inkscape:export-xdpi="96"
   inkscape:export-ydpi="96"
   xmlns:inkscape="http://www.inkscape.org/namespaces/inkscape"
   xmlns:sodipodi="http://sodipodi.sourceforge.net/DTD/sodipodi-0.dtd"
   xmlns="http://www.w3.org/2000/svg"
   xmlns:svg="http://www.w3.org/2000/svg"
   xmlns:rdf="http://www.w3.org/1999/02/22-rdf-syntax-ns#"
   xmlns:cc="http://creativecommons.org/ns#"
   xmlns:dc="http://purl.org/dc/elements/1.1/">
  <title
     id="title20588">IMYplay icon</title>
  <sodipodi:namedview
     id="namedview7"
     pagecolor="#ffffff"
     bordercolor="#666666"
     borderopacity="1.0"
     inkscape:pageshadow="2"
     inkscape:pageopacity="0.0"
     inkscape:pagecheckerboard="false"
     inkscape:document-units="px"
     showgrid="false"
     width="128px"
     inkscape:object-nodes="true"
     inkscape:snap-smooth-nodes="true"
     inkscape:snap-bbox="true"
     inkscape:bbox-nodes="true"
     inkscape:snap-bbox-midpoints="true"
     inkscape:bbox-paths="true"
     inkscape:snap-bbox-edge-midpoints="true"
     inkscape:snap-midpoints="true"
     inkscape:snap-global="true"
     inkscape:snap-intersection-paths="true"
     inkscape:object-paths="true"
     inkscape:zoom="3.7"
     inkscape:cx="72.297297"
     inkscape:cy="65.945946"
     inkscape:window-width="1366"
     inkscape:window-height="701"
     inkscape:window-x="0"
     inkscape:window-y="0"
     inkscape:window-maximized="1"
     inkscape:current-layer="layer1"
     inkscape:showpageshadow="false" />
  <defs
     id="defs2">
    <inkscape:path-effect
       effect="spiro"
       id="path-effect11949"
       is_visible="true"
       lpeversion="1" />
    <inkscape:path-effect
       effect="spiro"
       id="path-effect11433"
       is_visible="true"
       lpeversion="1" />
    <inkscape:path-effect
       effect="spiro"
       id="path-effect9909"
       is_visible="true"
       lpeversion="1" />
    <inkscape:path-effect
       effect="spiro"
       id="path-effect9462"
       is_visible="true"
       lpeversion="1" />
    <inkscape:path-effect
       effect="spiro"
       id="path-effect9353"
       is_visible="true"
       lpeversion="1" />
    <inkscape:path-effect
       effect="spiro"
       id="path-effect9255"
       is_visible="true"
       lpeversion="1" />
    <inkscape:path-effect
       effect="spiro"
       id="path-effect9025"
       is_visible="true"
       lpeversion="1" />
    <inkscape:path-effect
       effect="spiro"
       id="path-effect8851"
       is_visible="true"
       lpeversion="1" />
    <inkscape:path-effect
       effect="spiro"
       id="path-effect8733"
       is_visible="true"
       lpeversion="1" />
    <inkscape:path-effect
       effect="spiro"
       id="path-effect8705"
       is_visible="true"
       lpeversion="1" />
    <inkscape:path-effect
       effect="spiro"
       id="path-effect1873"
       is_visible="true"
       lpeversion="1" />
    <inkscape:path-effect
       effect="spiro"
       id="path-effect1854"
       is_visible="true"
       lpeversion="1" />
    <inkscape:path-effect
       effect="spiro"
       id="path-effect1835"
       is_visible="true"
       lpeversion="1" />
    <inkscape:path-effect
       effect="spiro"
       id="path-effect1816"
       is_visible="true"
       lpeversion="1" />
    <inkscape:path-effect
       effect="spiro"
       id="path-effect1788"
       is_visible="true"
       lpeversion="1" />
    <inkscape:path-effect
       effect="spiro"
       id="path-effect1750"
       is_visible="true"
       lpeversion="1" />
    <inkscape:path-effect
       effect="spiro"
       id="path-effect1529"
       is_visible="true"
       lpeversion="1" />
    <inkscape:path-effect
       effect="spiro"
       id="path-effect1330"
       is_visible="true"
       lpeversion="1" />
    <inkscape:path-effect
       effect="spiro"
       id="path-effect1307"
       is_visible="true"
       lpeversion="1" />
    <inkscape:path-effect
       effect="spiro"
       id="path-effect1194"
       is_visible="true"
       lpeversion="1" />
    <inkscape:path-effect
       effect="spiro"
       id="path-effect1029"
       is_visible="true"
       lpeversion="1" />
  </defs>
  <g
     inkscape:label="Warstwa 1"
     inkscape:groupmode="layer"
     id="layer1">
    <rect
       style="fill:#ffffff;fill-opacity:1;stroke:#000000;stroke-width:0.02645833;stroke-linecap:round;stroke-linejoin:round;stroke-miterlimit:4;stroke-dasharray:none;stroke-opacity:1"
       id="rect25285"
       width="33.757343"
       height="33.84893"
       x="0.010649536"
       y="0.046968162" />
    <g
       id="g1969"
       transform="translate(13.857144,-14.364366)">
      <ellipse
         style="fill:#000000;stroke:#000000;stroke-width:0.264583;stroke-linecap:round;stroke-linejoin:round"
         id="path890"
         cx="5.7412691"
         cy="27.589321"
         rx="2.29143"
         ry="1.3748534" />
      <path
         style="fill:none;stroke:#000000;stroke-width:0.79375;stroke-linecap:butt;stroke-linejoin:miter;stroke-miterlimit:4;stroke-dasharray:none;stroke-opacity:1"
         d="m 7.720026,27.731067 v -8.75319"
         id="path1027"
         inkscape:path-effect="#path-effect1029"
         inkscape:original-d="m 7.720026,27.731067 c 2.645e-4,-2.917465 2.645e-4,-5.835195 0,-8.75319" />
      <ellipse
         style="fill:#000000;stroke:#000000;stroke-width:0.264583;stroke-linecap:round;stroke-linejoin:round"
         id="path890-3"
         cx="11.952941"
         cy="26.050922"
         rx="2.29143"
         ry="1.3748534" />
      <path
         style="fill:none;stroke:#000000;stroke-width:0.79375;stroke-linecap:butt;stroke-linejoin:miter;stroke-miterlimit:4;stroke-dasharray:none;stroke-opacity:1"
         d="m 13.931698,26.192667 v -8.75319"
         id="path1027-56"
         inkscape:path-effect="#path-effect1330"
         inkscape:original-d="m 13.931698,26.192667 c 2.65e-4,-2.917465 2.65e-4,-5.835195 0,-8.75319" />
      <path
         style="fill:none;stroke:#000000;stroke-width:0.79375;stroke-linecap:butt;stroke-linejoin:miter;stroke-miterlimit:4;stroke-dasharray:none;stroke-opacity:1"
         d="m 7.4576775,18.977877 6.8708345,-1.5384"
         id="path1527"
         inkscape:path-effect="#path-effect1529"
         inkscape:original-d="m 7.4576775,18.977877 c 2.290571,-0.512535 4.5808495,-1.025335 6.8708345,-1.5384" />
      <path
         style="fill:none;stroke:#000000;stroke-width:0.79375;stroke-linecap:butt;stroke-linejoin:miter;stroke-miterlimit:4;stroke-dasharray:none;stroke-opacity:1"
         d="m 7.3414287,20.16544 6.8708353,-1.5384"
         id="path1527-2"
         inkscape:path-effect="#path-effect1750"
         inkscape:original-d="m 7.3414287,20.16544 c 2.290571,-0.512535 4.5808503,-1.025335 6.8708353,-1.5384" />
    </g>
    <g
       id="g1961"
       transform="matrix(0.49747989,0,0,0.79155649,13.834424,14.564854)"
       style="stroke-width:1.59357">
      <path
         style="fill:none;stroke:#000000;stroke-width:0.421632px;stroke-linecap:butt;stroke-linejoin:miter;stroke-opacity:1"
         d="m -27.253862,0.15442019 c 3.197142,2.18506891 7.050248,3.39674271 10.92256,3.43478261 3.872311,0.03804 7.7484768,-1.0977049 10.9879284,-3.21954361 1.9399413,-1.2706603 3.6378447,-2.87132209 5.45863483,-4.30752299 C 5.6723351,-8.3211666 12.434823,-11.160204 19.45548,-12.057302 c 7.020657,-0.897097 14.279748,0.150266 20.760468,2.9953822"
         id="path1786"
         inkscape:path-effect="#path-effect1788"
         inkscape:original-d="m -27.253862,0.15442019 c 7.30376,0.07201 14.607256,0.143757 21.9104884,0.215239 7.3032316,0.071483 3.6393544,-2.87141699 5.45863483,-4.30752299 1.81928037,-1.436105 26.73405677,-3.415773 40.10068677,-5.124056" />
      <path
         style="fill:none;stroke:#000000;stroke-width:0.421632px;stroke-linecap:butt;stroke-linejoin:miter;stroke-opacity:1"
         d="m -27.242765,8.5754716 c 3.197142,2.1850684 7.050248,3.3967424 10.922559,3.4347824 3.872312,0.03804 7.7484775,-1.097705 10.9879291,-3.2195434 C -3.3923355,7.5200503 -1.6944321,5.9193885 0.12635811,4.4831876 5.6834321,0.0998849 12.44592,-2.7391521 19.466577,-3.63625 c 7.020657,-0.8970978 14.279748,0.1502653 20.760468,2.99538164"
         id="path1786-9"
         inkscape:path-effect="#path-effect1816"
         inkscape:original-d="m -27.242765,8.5754716 c 7.30376,0.07201 14.607256,0.143757 21.9104881,0.215239 7.303232,0.07148 3.639354,-2.871417 5.45863501,-4.307523 C 1.9456381,3.0470826 26.860415,1.0674146 40.227045,-0.64086836" />
      <path
         style="fill:none;stroke:#000000;stroke-width:0.421632px;stroke-linecap:butt;stroke-linejoin:miter;stroke-opacity:1"
         d="m -27.190865,11.282568 c 3.197142,2.185069 7.050248,3.396743 10.92256,3.434782 3.872312,0.03804 7.748477,-1.097704 10.9879286,-3.219543 1.9399413,-1.27066 3.6378447,-2.8713219 5.45863488,-4.3075227 C 5.7353324,2.8069818 12.49782,-0.03205513 19.518477,-0.92915309 26.539134,-1.8262511 33.798225,-0.77888822 40.278945,2.0662278"
         id="path1786-1"
         inkscape:path-effect="#path-effect1835"
         inkscape:original-d="m -27.190865,11.282568 c 7.30376,0.07201 14.607256,0.143757 21.9104886,0.215239 C 2.0228552,11.569287 -1.641022,8.6263903 0.17825848,7.1902843 1.9975388,5.7541783 26.912315,3.7745113 40.278945,2.0662278" />
      <path
         style="fill:none;stroke:#000000;stroke-width:0.421632px;stroke-linecap:butt;stroke-linejoin:miter;stroke-opacity:1"
         d="m -27.17155,5.883958 c 3.197142,2.1850689 7.050248,3.3967426 10.922559,3.4347825 3.872312,0.03804 7.7484772,-1.0977049 10.9879287,-3.2195435 C -3.321121,4.8285367 -1.6232176,3.2278749 0.19757255,1.791674 5.7546465,-2.5916289 12.517134,-5.430666 19.537792,-6.327764 26.558449,-7.2248619 33.81754,-6.1774989 40.29826,-3.3323825"
         id="path1786-2"
         inkscape:path-effect="#path-effect1854"
         inkscape:original-d="m -27.17155,5.883958 c 7.30376,0.07201 14.607256,0.143757 21.9104877,0.215239 C 2.0421693,6.170677 -1.6217079,3.22778 0.19757255,1.791674 2.0168529,0.35556797 26.93163,-1.624099 40.29826,-3.3323825" />
      <path
         style="fill:none;stroke:#000000;stroke-width:0.421632px;stroke-linecap:butt;stroke-linejoin:miter;stroke-opacity:1"
         d="m -27.197947,3.0166303 c 3.197142,2.1850689 7.050248,3.3967426 10.922559,3.4347825 3.872312,0.03804 7.7484774,-1.0977049 10.9879289,-3.2195435 C -3.3475178,1.961209 -1.6496144,0.36054722 0.17117577,-1.0756537 5.7282497,-5.4589565 12.490738,-8.2979936 19.511395,-9.1950916 c 7.020657,-0.8970984 14.279748,0.150265 20.760468,2.9953814"
         id="path1786-7"
         inkscape:path-effect="#path-effect1873"
         inkscape:original-d="m -27.197947,3.0166303 c 7.30376,0.07201 14.607256,0.143757 21.9104879,0.215239 7.3032316,0.07148 3.6393544,-2.87141699 5.45863487,-4.307523 C 1.9904561,-2.5117597 26.905233,-4.4914267 40.271863,-6.1997102" />
    </g>
    <text
       xml:space="preserve"
       style="font-style:normal;font-weight:normal;font-size:10.5833px;line-height:1.25;font-family:sans-serif;fill:#008000;fill-opacity:1;stroke:none;stroke-width:0.264583"
       x="-0.058167066"
       y="8.3108931"
       id="text2523"><tspan
         sodipodi:role="line"
         id="tspan2521"
         style="fill:#008000;stroke-width:0.264583"
         x="-0.058167066"
         y="8.3108931">IMY</tspan></text>
    <path
       style="fill:#00ffff;stroke:#000000;stroke-width:0.264583px;stroke-linecap:butt;stroke-linejoin:miter;stroke-opacity:1"
       d="m 0.27617574,14.687087 0.0313397,8.808557"
       id="path9907"
       inkscape:path-effect="#path-effect9909"
       inkscape:original-d="m 0.27617574,14.687087 c 0.0107112,2.93645 0.0211577,5.872636 0.0313397,8.808557" />
    <path
       style="fill:none;stroke:#000000;stroke-width:0.264583px;stroke-linecap:butt;stroke-linejoin:miter;stroke-opacity:1"
       d="m 33.841051,7.3918328 0.03134,8.8085572"
       id="path11431"
       inkscape:path-effect="#path-effect11433"
       inkscape:original-d="m 33.841051,7.3918328 c 0.01071,2.9364502 0.02117,5.8726362 0.03134,8.8085572" />
    <path
       style="fill:#c3ffff;fill-opacity:1;stroke:none;stroke-width:0;stroke-linecap:round;stroke-linejoin:round;stroke-miterlimit:4;stroke-dasharray:none"
       d="m 125.41176,33.828926 c -2.70033,-2.092662 -12.6118,-6.194105 -16.82352,-6.961712 l -1.76471,-0.321626 v -3.272794 c 0,-3.943654 -0.0123,-3.939894 6.15294,-1.874334 4.59857,1.540662 9.01115,3.638981 12.08235,5.745533 l 2,1.37181 v 3.036216 c 0,1.669919 -0.15882,3.029481 -0.35294,3.02125 -0.19412,-0.0082 -0.77647,-0.343186 -1.29412,-0.744343 z"
       id="path11589"
       transform="scale(0.26458334)" />
    <path
       style="fill:#000000;fill-opacity:1;stroke:none;stroke-width:1;stroke-linecap:round;stroke-linejoin:round;stroke-miterlimit:4;stroke-dasharray:none"
       d=""
       id="path12183"
       transform="scale(0.26458334)" />
    <g
       id="g13957"
       transform="translate(38.794007,12.275511)">
      <rect
         style="fill:#ffff00;fill-opacity:1;stroke:#000000;stroke-width:0.79375;stroke-linecap:round;stroke-linejoin:round;stroke-miterlimit:4;stroke-dasharray:none"
         id="rect8646"
         width="1.9580771"
         height="6.6029792"
         x="-18.048855"
         y="4.6290641" />
      <path
         style="fill:none;stroke:#000000;stroke-width:0.529167;stroke-linecap:butt;stroke-linejoin:miter;stroke-miterlimit:4;stroke-dasharray:none;stroke-opacity:1"
         d="m -16.090779,4.6290641 2.577393,-2.5773938"
         id="path8703"
         inkscape:path-effect="#path-effect8705"
         inkscape:original-d="m -16.090779,4.6290641 c 0.859395,-0.8588667 1.718527,-1.717998 2.577393,-2.5773938" />
      <path
         style="fill:none;stroke:#000000;stroke-width:0.529167;stroke-linecap:butt;stroke-linejoin:miter;stroke-miterlimit:4;stroke-dasharray:none;stroke-opacity:1"
         d="m -13.513384,13.809437 -2.577394,-2.577394"
         id="path8703-0"
         inkscape:path-effect="#path-effect8733"
         inkscape:original-d="m -13.513384,13.809437 c -0.859395,-0.858867 -1.718527,-1.717998 -2.577394,-2.577394" />
      <path
         style="fill:none;stroke:#000000;stroke-width:0.529167;stroke-linecap:butt;stroke-linejoin:miter;stroke-miterlimit:4;stroke-dasharray:none;stroke-opacity:1"
         d="M -13.513386,2.0516703 V 13.809437"
         id="path8849"
         inkscape:path-effect="#path-effect8851"
         inkscape:original-d="m -13.513386,2.0516703 c 2.65e-4,3.9195203 2.65e-4,7.8387761 0,11.7577667" />
      <path
         style="fill:none;stroke:#000000;stroke-width:0.264583px;stroke-linecap:butt;stroke-linejoin:miter;stroke-opacity:1"
         d="M -11.733519,7.9305538 H -7.56155"
         id="path9023"
         inkscape:path-effect="#path-effect9025"
         inkscape:original-d="m -11.733519,7.9305538 c 1.390842,1.855e-4 2.781498,1.855e-4 4.171969,0" />
      <path
         style="fill:none;stroke:#000000;stroke-width:0.264583px;stroke-linecap:butt;stroke-linejoin:miter;stroke-opacity:1"
         d="M -12.662837,5.7416976 -8.180689,3.0251048"
         id="path9253"
         inkscape:path-effect="#path-effect9255"
         inkscape:original-d="M -12.662837,5.7416976 C -11.168523,4.836327 -9.674474,3.9307962 -8.180689,3.0251048" />
      <path
         style="fill:none;stroke:#000000;stroke-width:0.264583px;stroke-linecap:butt;stroke-linejoin:miter;stroke-opacity:1"
         d="m -12.58312,9.7913985 4.482148,2.7165925"
         id="path9253-3"
         inkscape:path-effect="#path-effect9462"
         inkscape:original-d="m -12.58312,9.7913985 c 1.494314,0.9053695 2.988363,1.8109005 4.482148,2.7165925" />
      <path
         style="fill:#000000;fill-opacity:1;stroke:none;stroke-width:1;stroke-linecap:round;stroke-linejoin:round;stroke-miterlimit:4;stroke-dasharray:none"
         d="m -51.096163,52.470588 c 1.53e-4,-0.323529 0.01003,-0.448377 0.02195,-0.27744 0.01192,0.170938 0.01179,0.435644 -2.78e-4,0.588236 -0.01207,0.152592 -0.02183,0.01273 -0.02167,-0.310796 z"
         id="path12105"
         transform="scale(0.26458334)" />
      <path
         style="fill:#00ff00;fill-opacity:1;stroke:none;stroke-width:1;stroke-linecap:round;stroke-linejoin:round;stroke-miterlimit:4;stroke-dasharray:none"
         d="M -55.696509,45.960522 -59.230592,42.42357 V 29.945182 17.466795 l 3.577129,-3.574226 3.577128,-3.574227 v 19.589566 c 0,10.774261 -0.01937,19.589567 -0.04304,19.589567 -0.02367,0 -1.633383,-1.591629 -3.577129,-3.536953 z"
         id="path13342"
         transform="scale(0.26458334)" />
    </g>
    <path
       style="fill:#c3ffff;fill-opacity:1;stroke:none;stroke-width:1;stroke-linecap:round;stroke-linejoin:round;stroke-miterlimit:4;stroke-dasharray:none"
       d="m 126.52941,51.436469 c -5.00792,-3.428305 -11.70185,-6.307383 -17.94117,-7.716551 l -1.94118,-0.43842 -0.0313,-3.330661 -0.0313,-3.33066 0.44303,0.07951 c 1.05931,0.190102 3.57202,0.815861 4.9957,1.244118 4.85567,1.460629 9.11645,3.453317 14.00615,6.550414 l 1.38235,0.875571 v 3.285695 c 0,1.807133 -0.0397,3.280864 -0.0882,3.274958 -0.0485,-0.0059 -0.40588,-0.228192 -0.79412,-0.49397 z"
       id="path21061"
       transform="scale(0.26458334)" />
    <path
       style="fill:#c3ffff;fill-opacity:1;stroke:none;stroke-width:1;stroke-linecap:round;stroke-linejoin:round;stroke-miterlimit:4;stroke-dasharray:none"
       d="M 126.24136,43.096661 C 120.2819,39.261895 114.02832,36.71046 107.26471,35.354255 l -0.67647,-0.135643 v -3.579894 c 0,-1.968942 0.0397,-3.579023 0.0882,-3.577957 0.0485,0.0011 0.7848,0.156069 1.63615,0.344453 6.01986,1.33205 11.75459,3.755061 17.4716,7.382011 0.75486,0.47889 1.43067,0.940839 1.50181,1.026555 0.0891,0.107379 0.11963,1.219797 0.0981,3.577 l -0.0312,3.421155 z"
       id="path21100"
       transform="scale(0.26458334)" />
    <path
       style="fill:#c3ffff;fill-opacity:1;stroke:none;stroke-width:1;stroke-linecap:round;stroke-linejoin:round;stroke-miterlimit:4;stroke-dasharray:none"
       d="M 19.855089,98.289493 C 15.794295,97.863786 11.75578,96.346642 7.9726219,93.825625 5.9825124,92.499457 4.7627348,91.512466 3.1055536,89.887407 l -1.3248528,-1.299172 -0.075609,-3.21032 -0.075609,-3.21032 0.9793763,0.93181 c 4.6029678,4.379403 9.6005329,7.115184 14.8471739,8.127682 7.270823,1.403125 14.85504,-0.700508 21.367496,-5.926696 3.331951,-2.67386 5.618233,-5.229509 10.582942,-11.829803 2.625493,-3.490443 4.410242,-5.731508 6.157113,-7.73133 1.566667,-1.793525 5.204434,-5.465888 6.848181,-6.913307 1.37287,-1.208897 4.432213,-3.680434 5.115329,-4.132499 l 0.472439,-0.312646 0.687929,0.298347 c 0.923511,0.400515 2.217717,0.748189 3.421169,0.919059 0.937608,0.133125 3.669224,0.08812 4.714898,-0.07768 0.281642,-0.04466 -0.145907,0.228749 -1.352941,0.86517 -7.749207,4.085848 -14.528193,9.569866 -20.83165,16.852248 -1.527064,1.764217 -3.049065,3.688863 -6.045159,7.644405 -3.645908,4.813447 -4.834212,6.241701 -7.004454,8.418838 -2.992214,3.00172 -5.420233,4.788014 -8.706972,6.405722 -2.646408,1.302542 -4.687285,1.970451 -7.354581,2.406898 -1.392143,0.227794 -4.312777,0.318246 -5.672683,0.175682 z"
       id="path21976"
       transform="scale(0.26458334)" />
    <path
       style="fill:#c3ffff;fill-opacity:1;stroke:none;stroke-width:1;stroke-linecap:round;stroke-linejoin:round;stroke-miterlimit:4;stroke-dasharray:none"
       d="M 19.529412,90.172191 C 15.075751,89.62894 10.542532,87.766404 6.6053344,84.862155 5.1789514,83.809992 4.2477822,83.01302 2.7941176,81.600199 L 1.6470588,80.485368 v -3.221729 -3.22173 l 1.2647059,1.180062 c 3.7055293,3.457524 7.4385103,5.753122 11.5909443,7.12785 2.650922,0.877631 4.861687,1.235786 7.638324,1.23745 3.879707,0.0023 7.555415,-0.911538 11.329555,-2.816773 4.588866,-2.31652 8.304071,-5.508334 12.605105,-10.829321 0.392271,-0.485295 1.893356,-2.444118 3.335747,-4.352942 4.626971,-6.123215 6.094999,-7.860884 9.703152,-11.48538 2.107907,-2.117454 5.811005,-5.521041 5.897688,-5.420677 0.01126,0.01304 -0.03493,0.325208 -0.102639,0.693712 -0.231806,1.261548 0.367494,2.814659 1.470676,3.811317 l 0.481405,0.434921 -0.342215,0.247759 c -4.165788,3.015984 -10.06305,8.792468 -14.125283,13.835995 -0.390873,0.485295 -1.893024,2.444118 -3.338113,4.352942 -3.799386,5.01862 -5.236743,6.766849 -7.28983,8.86648 -4.986993,5.100047 -10.338437,8.092182 -16.236869,9.078465 -1.333737,0.223017 -4.763218,0.319283 -6,0.168422 z"
       id="path22015"
       transform="scale(0.26458334)" />
    <path
       style="fill:#c3ffff;fill-opacity:1;stroke:none;stroke-width:1;stroke-linecap:round;stroke-linejoin:round;stroke-miterlimit:4;stroke-dasharray:none"
       d="M 20.329704,82.167013 C 15.619187,81.793608 10.729625,79.817385 6.3529412,76.518 5.0453696,75.53228 3.1164038,73.803032 2.1266812,72.729309 L 1.6470588,72.208981 v -3.382059 -3.382057 l 1.3176886,1.26266 c 4.7476972,4.54943 10.5487796,7.451977 16.3262846,8.168789 1.438374,0.178458 4.245502,0.152017 5.823602,-0.05485 5.819772,-0.762906 11.535402,-3.721854 16.457375,-8.519886 2.366606,-2.307013 3.919311,-4.159976 7.843615,-9.360397 3.7673,-4.992362 5.222437,-6.767288 8.023878,-9.787241 4.52768,-4.88084 9.96413,-9.312544 15.373025,-12.531837 1.512192,-0.900035 4.82391,-2.601527 6.259293,-3.215897 L 80,31.008924 v 3.56697 3.566971 l -1.147059,0.503233 c -7.044292,3.090446 -13.737003,7.750468 -19.854699,13.82449 -3.345095,3.321216 -6.042529,6.497678 -9.94057,11.705883 -3.688708,4.928514 -5.773494,7.422913 -8.013721,9.588235 -6.160163,5.954192 -13.588139,8.967196 -20.714247,8.402307 z"
       id="path22054"
       transform="scale(0.26458334)" />
    <path
       style="fill:#c3ffff;fill-opacity:1;stroke:none;stroke-width:1;stroke-linecap:round;stroke-linejoin:round;stroke-miterlimit:4;stroke-dasharray:none"
       d="M 20.176471,73.587059 C 14.016341,73.003906 8.1691309,70.106647 2.9737524,65.063211 l -1.3376243,-1.298505 0.034877,-3.327749 0.034877,-3.327749 1.2352941,1.134536 c 4.3166775,3.96458 8.5853798,6.360702 13.4705888,7.561357 4.605121,1.131817 9.591347,0.782551 14.294117,-1.001248 2.497643,-0.947375 5.819054,-2.856831 7.941177,-4.565325 3.630827,-2.923133 5.836414,-5.403666 11.352723,-12.76794 3.338511,-4.456912 5.537103,-7.060023 8.58151,-10.160419 5.119155,-5.213302 10.355981,-9.238379 16.065767,-12.348311 1.373188,-0.74793 4.37835,-2.188874 5.147059,-2.467961 C 79.987305,22.423759 80,22.638469 80,25.975785 v 3.556636 l -1.676471,0.750224 c -9.452798,4.230149 -18.261676,11.334163 -25.908049,20.893826 -0.724578,0.905882 -2.49874,3.208823 -3.942585,5.117647 -4.096088,5.415203 -6.063836,7.695881 -8.494853,9.845781 -3.883948,3.434821 -7.791248,5.60671 -12.144915,6.750806 -2.404148,0.631783 -5.430887,0.907057 -7.656656,0.696354 z"
       id="path22093"
       transform="scale(0.26458334)" />
    <path
       style="fill:#c3ffff;fill-opacity:1;stroke:none;stroke-width:1;stroke-linecap:round;stroke-linejoin:round;stroke-miterlimit:4;stroke-dasharray:none"
       d="m 126.23529,59.271588 c -1.58644,-1.048311 -4.12714,-2.471466 -6.17251,-3.457484 -5.47288,-2.638342 -10.62555,-4.151552 -16.65219,-4.890331 -2.3653,-0.289952 -7.815196,-0.290638 -10.271201,-0.0013 -3.453974,0.406916 -6.488599,1.075302 -9.76085,2.149859 -1.114079,0.365846 -2.10501,0.694782 -2.202068,0.730968 -0.09706,0.03619 0.153474,-0.240472 0.55674,-0.614795 0.499539,-0.463685 0.855239,-0.92846 1.116106,-1.458357 0.422781,-0.858789 0.431609,-0.986071 0.267316,-3.854294 l -0.08124,-1.418257 1.394068,-0.430072 C 85.736297,45.624371 88.098672,45 88.317235,45 c 0.05397,0 0.190851,0.261075 0.304182,0.580166 1.117743,3.147077 6.58461,5.036247 11.742483,4.057816 3.17101,-0.601531 5.63424,-2.329874 6.23277,-4.373276 0.0806,-0.275 0.19192,-0.5 0.24748,-0.5 0.26769,0 2.97493,0.631914 4.25037,0.992105 5.02629,1.419458 10.24441,3.821187 14.9338,6.873532 l 1.38126,0.899069 10e-4,3.205882 c 5.8e-4,1.763235 -0.0386,3.203904 -0.0871,3.201484 -0.0485,-0.0024 -0.53824,-0.301754 -1.08824,-0.66519 z"
       id="path22132"
       transform="scale(0.26458334)" />
    <path
       style="fill:#c3ffff;fill-opacity:1;stroke:none;stroke-width:1;stroke-linecap:round;stroke-linejoin:round;stroke-miterlimit:4;stroke-dasharray:none"
       d="M 83.058824,41.738828 V 38.4618 l 1.147058,-0.372194 c 5.117457,-1.660497 11.022838,-2.438505 16.317528,-2.149764 1.23271,0.06723 2.38688,0.152174 2.56483,0.188776 l 0.32352,0.06655 v 1.758379 1.75838 l -0.32352,-0.16495 c -0.7138,-0.363922 -2.22212,-0.785231 -3.472882,-0.97005 -4.61418,-0.681816 -9.418745,1.009107 -10.840754,3.815307 -0.167209,0.32997 -0.304826,0.667882 -0.305817,0.750916 -0.004,0.339057 -0.252814,0.462867 -1.594087,0.793373 -1.164605,0.286972 -2.40331,0.63511 -3.609994,1.014589 -0.192701,0.0606 -0.205882,-0.145069 -0.205882,-3.212282 z"
       id="path22171"
       transform="scale(0.26458334)" />
    <path
       style="fill:#c3ffff;fill-opacity:1;stroke:none;stroke-width:1;stroke-linecap:round;stroke-linejoin:round;stroke-miterlimit:4;stroke-dasharray:none"
       d="m 83.058824,33.429404 v -3.59577 l 1.205882,-0.373286 c 3.025472,-0.936547 6.271396,-1.601639 9.441176,-1.934503 2.019517,-0.212073 6.676268,-0.245724 8.411768,-0.06079 0.6147,0.0655 1.15735,0.120016 1.20588,0.121138 0.0485,0.0011 0.0882,1.622536 0.0882,3.603145 v 3.601106 l -0.44117,-0.06922 c -0.24265,-0.03807 -1.82363,-0.1044 -3.513297,-0.147392 -4.257388,-0.108325 -7.307642,0.170697 -11.263045,1.030286 -1.355206,0.294514 -4.277226,1.091734 -4.955556,1.352034 -0.158975,0.061 -0.179868,-0.348655 -0.179868,-3.526748 z"
       id="path22210"
       transform="scale(0.26458334)" />
    <path
       style="fill:#c3ffff;fill-opacity:1;stroke:none;stroke-width:1;stroke-linecap:round;stroke-linejoin:round;stroke-miterlimit:4;stroke-dasharray:none"
       d="m 83.058824,25.667574 c 0,-2.535428 0.01739,-2.774605 0.205882,-2.831396 0.113235,-0.03412 4.119685,-0.937685 8.903221,-2.007928 8.695283,-1.945438 9.222723,-2.03824 10.626193,-1.869664 l 0.61764,0.07419 v 3.574223 3.574223 l -1.14705,-0.09061 c -0.63089,-0.04984 -2.655886,-0.08607 -4.500004,-0.08052 -3.718569,0.01119 -5.662848,0.202285 -8.997176,0.884282 -1.489361,0.304631 -4.805213,1.185048 -5.502824,1.461096 -0.192555,0.07619 -0.205882,-0.0978 -0.205882,-2.687896 z"
       id="path22249"
       transform="scale(0.26458334)" />
    <path
       style="fill:#c3ffff;fill-opacity:1;stroke:none;stroke-width:1;stroke-linecap:round;stroke-linejoin:round;stroke-miterlimit:4;stroke-dasharray:none"
       d="m 79.117647,45.167052 c -0.770539,-0.320484 -2.142825,-0.686693 -3.041134,-0.81156 -0.905336,-0.125844 -3.486992,-0.08897 -4.355085,0.0622 -0.436194,0.07596 -0.821064,0.110124 -0.855267,0.07592 -0.181719,-0.181719 5.6093,-3.359102 8.057515,-4.420951 L 80,39.605834 v 2.932377 c 0,1.612807 -0.03971,2.930139 -0.08823,2.927404 -0.04853,-0.0027 -0.405883,-0.137088 -0.794118,-0.298563 z"
       id="path22288"
       transform="scale(0.26458334)" />
    <text
       xml:space="preserve"
       style="font-style:italic;font-variant:normal;font-weight:bold;font-stretch:normal;font-size:5.29167px;line-height:1.25;font-family:sans-serif;-inkscape-font-specification:'sans-serif, Bold Italic';font-variant-ligatures:normal;font-variant-caps:normal;font-variant-numeric:normal;font-variant-east-asian:normal;fill:#ff0000;fill-opacity:1;stroke:none;stroke-width:0.264583"
       x="0.11994044"
       y="30.814529"
       id="text4011"><tspan
         sodipodi:role="line"
         id="tspan4009"
         style="font-style:italic;font-variant:normal;font-weight:bold;font-stretch:normal;font-size:5.29166672px;font-family:sans-serif;-inkscape-font-specification:'sans-serif, Bold Italic';font-variant-ligatures:normal;font-variant-caps:normal;font-variant-numeric:normal;font-variant-east-asian:normal;fill:#ff0000;stroke-width:0.264583"
         x="0.11994044"
         y="30.814529">c1d2e3</tspan></text>
    <text
       xml:space="preserve"
       style="font-style:normal;font-weight:normal;font-size:7.74983px;line-height:1.25;font-family:sans-serif;fill:#008000;fill-opacity:1;stroke:none;stroke-width:0.264583"
       x="19.789576"
       y="31.899952"
       id="text23553"><tspan
         sodipodi:role="line"
         id="tspan23551"
         style="fill:#008000;stroke-width:0.264583"
         x="19.789576"
         y="31.899952">play</tspan></text>
  </g>
  <metadata
     id="metadata20586">
    <rdf:RDF>
      <cc:Work
         rdf:about="">
        <dc:creator>
          <cc:Agent>
            <dc:title>Bogdan Drozdowski</dc:title>
          </cc:Agent>
        </dc:creator>
        <dc:publisher>
          <cc:Agent>
            <dc:title>Bogdan Drozdowski</dc:title>
          </cc:Agent>
        </dc:publisher>
        <dc:title>IMYplay icon</dc:title>
        <dc:description>IMYplay icon</dc:description>
      </cc:Work>
    </rdf:RDF>
  </metadata>
</svg>
